<?xml version="1.0" encoding="UTF-8"?>
<svg version="1.1" xmlns="http://www.w3.org/2000/svg" width="2052" height="2052">
<path d="M0 0 C0.72841095 0.47293488 1.4568219 0.94586975 2.20730591 1.43313599 C11.38250667 7.39765285 20.52938146 13.40536469 29.66796875 19.42578125 C30.60895416 20.04550812 31.54993958 20.66523499 32.5194397 21.30374146 C48.70145795 31.96702595 64.79434308 42.75797993 80.84521484 53.61743164 C89.1923494 59.26421779 97.5453753 64.90068304 105.9375 70.48046875 C106.69685349 70.98544388 107.45620697 71.49041901 108.23857117 72.01069641 C111.75051961 74.34486468 115.26471974 76.67555709 118.78198242 79.00170898 C125.24825263 83.28743524 131.62463889 87.66112574 137.859375 92.28125 C141.43329079 94.87993997 145.12228682 97.29521417 148.80859375 99.73046875 C161.10204438 107.88014115 173.19084591 116.34712145 185.34130859 124.70800781 C187.98862838 126.52940622 190.63661616 128.34983208 193.28466797 130.17016602 C194.62621536 131.09241869 195.96768642 132.01478242 197.30908203 132.93725586 C200.55367788 135.16845706 203.79912874 137.39838662 207.046875 139.625 C215.99219394 145.76104522 224.90164634 151.94754615 233.80297852 158.1472168 C239.28791167 161.96571511 244.78073509 165.77180918 250.29296875 169.55078125 C259.65886484 175.97363163 268.97299224 182.47081344 278.29199219 188.96142578 C281.25233246 191.02248924 284.21383056 193.08187668 287.17578125 195.140625 C303.87340574 206.74704927 320.54813564 218.38522218 337.15234375 230.125 C339.93101819 232.08961991 342.71239295 234.05032132 345.49609375 236.0078125 C353.56012118 241.6817743 361.58099535 247.41046003 369.56445312 253.19726562 C374.59111267 256.83606404 379.65057558 260.42429647 384.73046875 263.98828125 C397.61651184 273.04586226 410.28147692 282.40822892 422.7265625 292.0625 C424.32713203 293.30251506 425.96157086 294.50133675 427.640625 295.6328125 C428.18589844 296.10074219 428.73117187 296.56867188 429.29296875 297.05078125 C429.29296875 298.04078125 429.29296875 299.03078125 429.29296875 300.05078125 C408.99268287 304.89467843 388.63950776 309.40246687 368.20186996 313.62806702 C365.78608457 314.12762926 363.37052626 314.62827947 360.95498657 315.12902832 C273.770565 333.18883831 186.32604582 350.01573226 -237.70703125 431.05078125 C-238.38129874 431.17686107 -239.05556623 431.30294088 -239.75026608 431.4328413 C-420.58351098 465.24524165 -420.58351098 465.24524165 -497.08203125 478.11328125 C-498.29133301 478.31837311 -499.50063477 478.52346497 -500.74658203 478.73477173 C-512.38406858 480.70120866 -523.8922769 482.61879034 -535.70703125 483.05078125 C-530.15062075 421.38817688 -461.6144018 342.58834221 -424.49609375 294.37890625 C-422.97547575 292.40011078 -421.46311647 290.41563929 -419.95703125 288.42578125 C-407.08054182 271.483032 -393.30676298 255.1606784 -378.921875 239.48046875 C-377.06696308 237.4456271 -375.25274327 235.38756878 -373.45703125 233.30078125 C-361.93482937 220.10399365 -349.54165437 207.72684654 -337.14599609 195.359375 C-334.78348482 193.00137311 -332.42435613 190.64009822 -330.06707191 188.27687836 C-327.77502105 185.98031886 -325.4791363 183.68759979 -323.18359375 181.39453125 C-322.35010406 180.55901733 -321.51661438 179.72350342 -320.65786743 178.8626709 C-316.37660782 174.5983847 -312.02961501 170.4776039 -307.44010925 166.54574585 C-304.68426312 164.16853466 -302.04841121 161.66539136 -299.39453125 159.17578125 C-294.52117576 154.63729601 -289.50399148 150.35729328 -284.30859375 146.1875 C-281.75716396 144.09195631 -279.32376352 141.9111497 -276.89453125 139.67578125 C-272.51923535 135.69322844 -267.95973859 132.03260055 -263.28833008 128.40966797 C-259.4919091 125.46302579 -255.74893688 122.46284176 -252.03808594 119.40917969 C-236.4603916 106.60016193 -220.13163025 94.74434378 -203.70703125 83.05078125 C-202.91329102 82.48504395 -202.11955078 81.91930664 -201.30175781 81.33642578 C-188.97938608 72.57488221 -176.46493953 64.16436327 -163.70703125 56.05078125 C-162.77375 55.45652344 -161.84046875 54.86226563 -160.87890625 54.25 C-139.21216093 40.4910374 -117.12465637 27.59776076 -94.47460938 15.52636719 C-91.90803757 14.15795152 -89.34624244 12.78098876 -86.78515625 11.40234375 C-29.55769761 -19.24669673 -29.55769761 -19.24669673 0 0 Z " fill="#000000" transform="translate(646.70703125,102.94921875)"/>
<path d="M0 0 C0.69338722 0.00026688 1.38677444 0.00053375 2.1011734 0.00080872 C27.87767845 0.01319722 53.58295376 0.53264037 79.3125 2.1875 C80.78734863 2.28224609 80.78734863 2.28224609 82.29199219 2.37890625 C114.10519556 4.45567217 145.75386384 7.65530869 177.3125 12.1875 C178.4374588 12.34804871 178.4374588 12.34804871 179.58514404 12.51184082 C246.39062194 22.15148635 313.74995642 43.51582119 377.5625 65.25 C378.22630676 65.47424652 378.89011353 65.69849304 379.57403564 65.92953491 C383.52001481 67.26876464 387.41892815 68.70388744 391.3125 70.1875 C392.05822266 70.40776855 392.80394531 70.62803711 393.57226562 70.85498047 C395.421875 71.55859375 395.421875 71.55859375 398.3125 74.1875 C399.37709045 77.24263 399.37709045 77.24263 400.32836914 80.9934082 C400.49862264 81.66302959 400.66887613 82.33265099 400.84428883 83.02256393 C402.48379777 89.60539693 403.76524339 96.24322337 404.94921875 102.921875 C405.18705755 104.23805794 405.42536596 105.5541561 405.66409302 106.87017822 C406.31356106 110.46185859 406.95434319 114.05503624 407.59283829 117.64868164 C408.00813035 119.98320394 408.42556548 122.31733404 408.84359741 124.65136719 C424.10481608 209.88977184 438.2731939 295.32088229 455.98234367 402.19305229 C456.50797532 405.3683506 457.03386446 408.54360626 457.55969238 411.71887207 C465.1538401 457.58862539 472.59915328 503.47692895 479.625 549.4375 C479.76225368 550.33487759 479.89950737 551.23225517 480.04092026 552.15682602 C484.97195883 584.41368912 484.97195883 584.41368912 487.16796875 600.234375 C487.35012688 601.52955048 487.35012688 601.52955048 487.53596497 602.85089111 C488.05124412 606.65306056 488.45404389 610.34794089 488.3125 614.1875 C484.30736176 613.61693312 481.68944958 612.40200052 478.328125 610.17578125 C477.36583984 609.54365723 476.40355469 608.9115332 475.41210938 608.26025391 C474.38923828 607.57624512 473.36636719 606.89223633 472.3125 606.1875 C471.26384766 605.49446777 470.21519531 604.80143555 469.13476562 604.08740234 C465.77093487 601.85939101 462.41569747 599.61895702 459.0625 597.375 C457.85684092 596.56931243 456.65111107 595.76373074 455.4453125 594.95825195 C453.6651551 593.76902548 451.88507623 592.57968297 450.10534668 591.38981628 C447.0369217 589.33843891 443.96626653 587.29054134 440.890625 585.25 C427.61185279 576.43949001 414.49916911 567.38493009 401.37133789 558.35180664 C396.19106566 554.78823758 391.00273097 551.23654504 385.8125 547.6875 C377.95460292 542.3139979 370.10638899 536.92660984 362.26416016 531.53027344 C359.61659866 529.70870873 356.96837132 527.88811345 354.32006836 526.06762695 C352.98094342 525.14702944 351.64191356 524.2262936 350.30297852 523.30541992 C347.02147372 521.04866155 343.73875921 518.79371157 340.453125 516.54296875 C332.18192089 510.87319174 323.95419167 505.14419213 315.74414062 499.38623047 C307.96774571 493.93647792 300.14721621 488.55292429 292.3125 483.1875 C282.8206912 476.68725416 273.36911911 470.1339856 263.95288086 463.5246582 C258.20461607 459.49598328 252.42570137 455.51522713 246.625 451.5625 C239.80260121 446.91281725 233.03356619 442.19448872 226.29736328 437.42089844 C221.17766575 433.79329564 216.02804335 430.21167312 210.86328125 426.6484375 C206.45543724 423.60088149 202.07385503 420.51585676 197.6875 417.4375 C191.05430959 412.78292632 184.38870611 408.1810177 177.6875 403.625 C170.66302582 398.84525137 163.75194146 393.92860117 156.8815918 388.93041992 C150.06099346 383.97810835 143.12799807 379.20149881 136.16455078 374.453125 C127.83638449 368.7619552 119.5708635 362.97925658 111.3125 357.1875 C110.20261719 356.41212891 110.20261719 356.41212891 109.0703125 355.62109375 C104.44067406 352.38658205 99.8226378 349.136088 95.21118164 345.87573242 C89.42872464 341.78772622 83.64099042 337.7096703 77.8125 333.6875 C72.21973562 329.82731442 66.66518427 325.91529399 61.11694336 321.99145508 C53.00454798 316.25690882 44.86280252 310.56442967 36.72094727 304.87182617 C33.34956675 302.51408119 29.97945346 300.15452746 26.609375 297.79492188 C24.32377165 296.19538824 22.03699867 294.59753776 19.75 293 C14.39789362 289.25437105 9.06256462 285.4850448 3.72827148 281.71411133 C-3.34596415 276.71538491 -10.4456354 271.75322476 -17.546875 266.79296875 C-25.56914788 261.18782361 -33.58259171 255.57266013 -41.53686523 249.87133789 C-48.17062668 245.118287 -54.84387705 240.42131345 -61.51416016 235.71972656 C-65.07310496 233.21063449 -68.63021057 230.69893813 -72.1875 228.1875 C-73.59504761 227.19400408 -75.0025997 226.20051451 -76.41015625 225.20703125 C-79.33501527 223.14246448 -82.25943691 221.07727992 -85.18359375 219.01171875 C-86.66403723 217.96611006 -88.14450565 216.92053667 -89.625 215.875 C-90.34212158 215.36855957 -91.05924316 214.86211914 -91.7980957 214.34033203 C-95.48405081 211.73853196 -99.17487028 209.14412646 -102.875 206.5625 C-107.28429268 203.48193356 -111.65966434 200.35469877 -116.03295898 197.22338867 C-120.65255573 193.91874717 -125.29253645 190.64385633 -129.9375 187.375 C-135.97037905 183.12798518 -141.96442266 178.83067065 -147.9375 174.5 C-152.98499103 170.84083692 -158.04935746 167.21835926 -163.1875 163.6875 C-168.32564427 160.15663955 -173.38996363 156.5341023 -178.4375 152.875 C-187.13510708 146.57040476 -195.8996776 140.36548187 -204.6875 134.1875 C-215.6548569 126.47726998 -226.56512103 118.69455831 -237.42138672 110.82861328 C-240.42595528 108.65271262 -243.43342184 106.48083958 -246.44116211 104.30932617 C-247.93565398 103.23032286 -249.42995818 102.15105958 -250.92407227 101.0715332 C-254.74639752 98.30987717 -258.57072355 95.55105827 -262.3984375 92.796875 C-269.78460092 87.47905279 -277.14903032 82.14317533 -284.40234375 76.64453125 C-287.07793714 74.62770465 -289.78805575 72.66145354 -292.50390625 70.69921875 C-293.78503296 69.76903931 -293.78503296 69.76903931 -295.09204102 68.82006836 C-296.78776245 67.59010806 -298.48732263 66.36541819 -300.19116211 65.14672852 C-304.29938618 62.15850623 -307.7597593 59.41999471 -310.6875 55.1875 C-305.00425267 50.66151084 -299.33536901 48.24899585 -292.5 45.875 C-291.40631104 45.48965088 -290.31262207 45.10430176 -289.18579102 44.70727539 C-276.50697558 40.31980299 -263.64552346 36.64932914 -250.6875 33.1875 C-248.91366943 32.71062744 -248.91366943 32.71062744 -247.10400391 32.22412109 C-184.69434513 15.61244824 -120.23817201 4.32969931 -55.6875 1.1875 C-54.84003204 1.14513214 -53.99256409 1.10276428 -53.11941528 1.05911255 C-35.41233706 0.19543241 -17.72626573 -0.01539395 0 0 Z " fill="#000000" transform="translate(1015.6875,0.8125)"/>
<path d="M0 0 C-2.66400758 14.16307828 -15.91687209 28.5833569 -23.80297852 40.23144531 C-25.03962136 42.05853908 -26.27485552 43.88657846 -27.50976562 45.71484375 C-33.24167579 54.19962064 -38.98734666 62.67500621 -44.74041748 71.14544678 C-45.95489601 72.93359089 -47.16912913 74.72190141 -48.38330078 76.51025391 C-60.75279025 94.72753539 -73.1748135 112.90826622 -85.65722656 131.04833984 C-87.93908519 134.36491764 -90.21945755 137.6825171 -92.5 141 C-93.41665976 142.33333808 -94.33332642 143.66667142 -95.25 145 C-95.930625 145.99 -95.930625 145.99 -96.625 147 C-98 149 -99.375 151 -100.75 153 C-101.20334717 153.65943604 -101.65669434 154.31887207 -102.1237793 154.99829102 C-103.04443216 156.33737791 -103.96516841 157.67640747 -104.88598633 159.01538086 C-107.11733692 162.26023002 -109.34743948 165.50591802 -111.57421875 168.75390625 C-116.97618932 176.62898236 -122.41561291 184.47710703 -127.875 192.3125 C-133.31074622 200.11438707 -138.70844359 207.9403511 -144.06591797 215.79614258 C-149.01754425 223.04722688 -154.03743244 230.25009283 -159.05859375 237.453125 C-163.23494706 243.44911785 -167.38298805 249.46312794 -171.5 255.5 C-177.01704009 263.58930182 -182.6011482 271.63067312 -188.19921875 279.6640625 C-191.98416987 285.09718116 -195.75625534 290.53841137 -199.5 296 C-204.66194652 303.52989333 -209.87995924 311.0203884 -215.09765625 318.51171875 C-218.91571524 323.9961033 -222.72152283 329.48827642 -226.5 335 C-231.66198464 342.5298675 -236.87995897 350.02038802 -242.09765625 357.51171875 C-245.91571524 362.9961033 -249.72152283 368.48827642 -253.5 374 C-257.97023698 380.5208044 -262.481551 387.01252385 -267 393.5 C-273.80738631 403.27501488 -280.57333092 413.07730686 -287.3046875 422.90478516 C-293.42073805 431.83231901 -299.5931746 440.71796774 -305.80786133 449.57714844 C-309.39870143 454.70004759 -312.96468335 459.8386475 -316.5 465 C-320.62835061 471.02714689 -324.80455303 477.01937702 -329 483 C-334.64439286 491.04688195 -340.23185323 499.13073509 -345.79003906 507.23730469 C-355.82466025 521.85594169 -365.99347731 536.38362271 -376.1328125 550.9296875 C-382.8654126 560.59210326 -389.5686474 570.27229829 -396.20336914 580.00219727 C-400.71803571 586.61248501 -405.30560353 593.17023727 -409.90405273 599.72241211 C-415.32168813 607.44600375 -420.66942569 615.21617254 -426 623 C-434.25557067 635.05497457 -442.60076719 647.04465976 -451 659 C-451.52239258 659.74427246 -452.04478516 660.48854492 -452.58300781 661.25537109 C-459.76038563 671.47678793 -467.03485869 681.62470997 -474.36328125 691.73828125 C-475.98509064 693.97939733 -477.60265132 696.22351315 -479.21875 698.46875 C-491.01690227 714.85606812 -502.9675334 731.0883386 -515.42626953 746.98095703 C-517.29438148 749.37768149 -519.13465472 751.79458245 -520.97241211 754.21459961 C-526.40566022 761.35958833 -532.14004686 768.20533041 -538 775 C-538.69609375 775.80953125 -539.3921875 776.6190625 -540.109375 777.453125 C-542.9686675 780.75230865 -545.84756849 783.97366575 -549 787 C-551.86713255 785.98698743 -552.88045551 785.20095013 -554.45703125 782.55078125 C-588.71775386 700.70023645 -601.25054964 599.57584373 -605.31785583 468.45368576 C-605.31241538 465.51682151 -605.31004791 462.57996532 -605.3079834 459.64309692 C-605.27480887 429.33204468 -604.62030244 399.21314706 -602 369 C-601.85366452 367.2475869 -601.70766678 365.49514557 -601.56201172 363.74267578 C-599.9557152 344.70010215 -597.68922119 325.74828727 -595.125 306.8125 C-594.95839371 305.55493896 -594.95839371 305.55493896 -594.78842163 304.27197266 C-591.36446103 278.68280484 -585.37733504 253.57863061 -579.0685997 228.5698204 C-578.55172466 226.51976225 -578.0367694 224.46922886 -577.52212524 222.41860962 C-568.78024748 187.62053723 -559.52485419 152.9365691 -548.8125 118.6875 C-548.59161713 117.97870697 -548.37073425 117.26991394 -548.14315796 116.53964233 C-547.52586779 114.56960526 -546.89990562 112.60260366 -546.26953125 110.63671875 C-545.92510986 109.56123779 -545.58068848 108.48575684 -545.22583008 107.37768555 C-544.82130615 106.26304932 -544.41678223 105.14841309 -544 104 C-543.77909982 103.2681313 -543.55819963 102.53626261 -543.33060551 101.78221607 C-541.16040639 95.63031352 -541.16040639 95.63031352 -538.09179783 93.96349621 C-535.63963483 93.33893112 -533.26113135 92.98573566 -530.74658203 92.70117188 C-528.83348504 92.41223583 -526.92042063 92.12308398 -525.00738525 91.83374023 C-524.01431618 91.69858002 -523.0212471 91.5634198 -521.99808502 91.42416382 C-517.17478397 90.74177163 -512.39314085 89.84189877 -507.60107422 88.97070312 C-505.57431232 88.61446673 -503.5472224 88.26009234 -501.51983643 87.90742493 C-495.79404432 86.91020234 -490.06893138 85.9091521 -484.34401703 84.90690327 C-480.51498781 84.23661568 -476.68587002 83.56683563 -472.85675049 82.89706421 C-420.91721621 73.80971027 -369.01313231 64.53336391 -317.12800264 55.14060163 C-313.78417813 54.53529171 -310.44032968 53.93011409 -307.0964815 53.3249349 C-294.83127866 51.10513129 -282.56612664 48.88504663 -270.30112267 46.66414452 C-83.78081884 12.88978462 -83.78081884 12.88978462 -12.81445312 1.60986328 C-10.43028366 1.22867694 -8.04825793 0.83351491 -5.66992188 0.41748047 C-3 0 -3 0 0 0 Z " fill="#000000" transform="translate(615,564)"/>
<path d="M0 0 C1.15628906 -0.00515625 2.31257813 -0.0103125 3.50390625 -0.015625 C6.4375 0.25 6.4375 0.25 9.4375 2.25 C12.00212596 25.87913808 -17.25449957 60.30696729 -29.5625 80.25 C-30.47444594 81.74058721 -31.38597715 83.23142832 -32.296875 84.72265625 C-50.30031521 114.03864535 -70.41291798 142.13077789 -91.5625 169.25 C-92.45315685 170.39971491 -93.34378084 171.54945528 -94.234375 172.69921875 C-99.64970217 179.66548641 -105.22284283 186.46680975 -110.953125 193.17578125 C-113.32519035 195.95733088 -115.63742712 198.78348661 -117.9375 201.625 C-126.52372464 212.15498672 -135.52064875 222.31107937 -144.78125 232.25 C-147.32970463 234.98748836 -149.82554112 237.76892976 -152.3125 240.5625 C-155.56875728 244.20080912 -158.93103793 247.68098992 -162.4453125 251.0703125 C-164.21465269 252.89188413 -165.84978956 254.74560534 -167.49609375 256.67578125 C-172.32349204 262.22985705 -177.54921991 267.38620598 -182.75952148 272.57739258 C-184.496436 274.308947 -186.22793889 276.04578359 -187.95898438 277.78320312 C-193.16563029 282.99264766 -198.38278251 288.11370291 -203.99047852 292.89624023 C-205.95168378 294.58514895 -207.76532952 296.38864486 -209.5625 298.25 C-212.69095964 301.42089998 -215.93105352 304.3756996 -219.30859375 307.27734375 C-221.52234286 309.2148538 -223.68492248 311.2014439 -225.84130859 313.20239258 C-231.04652804 318.03060234 -236.37659539 322.61256458 -241.91015625 327.06640625 C-244.55517637 329.24397068 -247.09462525 331.50318763 -249.625 333.8125 C-253.52529641 337.35877889 -257.53173863 340.69569741 -261.671875 343.95703125 C-264.59027298 346.27203073 -267.47431563 348.62499338 -270.35620117 350.98510742 C-277.06363801 356.47143669 -283.83178291 361.83488188 -290.81738281 366.96582031 C-292.85939878 368.46847896 -294.89444504 369.98036788 -296.9296875 371.4921875 C-323.62000057 391.28731981 -351.03433721 410.18667634 -379.5625 427.25 C-380.48627441 427.80316895 -381.41004883 428.35633789 -382.36181641 428.92626953 C-407.25115538 443.76792238 -432.9077541 457.18200445 -458.7648344 470.2440424 C-462.72750598 472.24598936 -466.68458012 474.25764931 -470.63085938 476.29174805 C-474.52770225 478.30016377 -478.4356751 480.28504554 -482.35289764 482.2534008 C-483.82584657 482.99840874 -485.29468938 483.75159606 -486.75910187 484.51324654 C-488.78487308 485.56485436 -490.82356367 486.58546097 -492.86816406 487.59985352 C-494.59586029 488.47916283 -494.59586029 488.47916283 -496.35845947 489.37623596 C-499.5625 490.25 -499.5625 490.25 -502.78143311 489.05088806 C-505.96140815 486.99168585 -509.07348437 484.8684684 -512.125 482.625 C-513.36920323 481.72314596 -514.61400781 480.82212104 -515.859375 479.921875 C-516.48134766 479.47134766 -517.10332031 479.02082031 -517.74414062 478.55664062 C-520.429791 476.62678015 -523.15104817 474.75028342 -525.875 472.875 C-530.90079915 469.41061418 -535.89365641 465.90295937 -540.875 462.375 C-546.40901488 458.45747552 -551.96746515 454.57985634 -557.5625 450.75 C-563.72356827 446.53142692 -569.83774031 442.25091392 -575.93237305 437.93701172 C-583.92782689 432.27857918 -591.95602934 426.6672181 -599.98339844 421.05419922 C-602.59656856 419.22616749 -605.208611 417.39653548 -607.8203125 415.56640625 C-616.11389371 409.75538433 -624.41457993 403.95573086 -632.74609375 398.19921875 C-637.03068539 395.23387724 -641.29642513 392.24188419 -645.5625 389.25 C-646.67238281 388.47462891 -646.67238281 388.47462891 -647.8046875 387.68359375 C-651.68079796 384.97553678 -655.55123752 382.25984495 -659.41015625 379.52734375 C-666.43111608 374.55712088 -673.46418146 369.60929299 -680.5625 364.75 C-686.72136827 360.53289234 -692.83367124 356.25430484 -698.92578125 351.94140625 C-704.45829333 348.02547211 -710.00718277 344.1335043 -715.5625 340.25 C-722.60658727 335.32470039 -729.63905831 330.38347116 -736.65625 325.41992188 C-743.51162824 320.57219012 -750.39254923 315.76117284 -757.28125 310.9609375 C-765.50578551 305.22540616 -773.70006497 299.45577896 -781.8125 293.5625 C-788.07770832 289.01165558 -794.40636175 284.57096317 -800.80126953 280.20458984 C-807.46043182 275.65269428 -814.01401656 270.95908552 -820.5625 266.25 C-828.44156752 260.59101416 -836.35685824 254.98844248 -844.3125 249.4375 C-851.58483448 244.36153589 -858.80221902 239.21688306 -865.97900391 234.00683594 C-871.01645546 230.35354399 -876.09167044 226.75877671 -881.1875 223.1875 C-887.46761465 218.780402 -893.63262425 214.24117794 -899.75 209.61132812 C-904.01068095 206.39261568 -908.3229828 203.26357394 -912.6875 200.1875 C-919.85010782 195.13275418 -926.71642811 189.72269577 -933.5625 184.25 C-932.5625 182.25 -932.5625 182.25 -930.83034801 181.65833855 C-930.07190248 181.49715097 -929.31345694 181.3359634 -928.5320282 181.16989136 C-927.23091504 180.88698809 -927.23091504 180.88698809 -925.90351677 180.5983696 C-924.94624247 180.39945744 -923.98896816 180.20054527 -923.00268555 179.99560547 C-921.50470271 179.67412474 -921.50470271 179.67412474 -919.9764576 179.34614944 C-916.65663892 178.63625907 -913.33429976 177.9390254 -910.01171875 177.2421875 C-907.68183028 176.74749861 -905.3520536 176.25228293 -903.02238464 175.75656128 C-880.88773018 171.05960986 -858.72178404 166.51408711 -836.54556274 162.018116 C-832.16017714 161.12858569 -827.7752246 160.23692965 -823.39025307 159.34536076 C-810.71914223 156.76913071 -798.04682547 154.1988737 -785.37408447 151.63067627 C-778.74573484 150.28733984 -772.11772251 148.94234442 -765.48974609 147.59716797 C-706.47174581 135.62109663 -647.41872268 123.82772806 -588.34056091 112.15224075 C-571.73955763 108.87129522 -555.14108543 105.57784926 -538.54470062 102.27362251 C-472.86596317 89.19797235 -407.14385104 76.3623844 -341.38125801 63.71545601 C-331.51840027 61.81870607 -321.65574424 59.92091014 -311.79320002 58.02253067 C-267.72432942 49.53999298 -223.6543937 41.06300235 -179.58208638 32.59833759 C-174.0217163 31.53036398 -168.46142357 30.4619882 -162.90115356 29.39349365 C-128.00006991 22.68697039 -93.09887592 15.98320712 -58.16448975 9.45184326 C-54.79536404 8.82135115 -51.4266421 8.18871423 -48.05790234 7.55616379 C-44.71646306 6.92898375 -41.37480449 6.30297879 -38.03307533 5.67734528 C-36.49387712 5.38906268 -34.9547389 5.10045954 -33.41567039 4.81148529 C-7.59272142 -0.03455163 -7.59272142 -0.03455163 0 0 Z " fill="#000000" transform="translate(1924.5625,1480.75)"/>
<path d="M0 0 C6.35271833 0.32919268 10.79413559 2.00668681 16.3125 5.0625 C17.1166333 5.49731689 17.9207666 5.93213379 18.74926758 6.38012695 C45.65240414 21.10756873 71.91308958 37.3665333 97 55 C97.92184082 55.64630371 97.92184082 55.64630371 98.86230469 56.30566406 C118.16404406 69.87166118 137.01370871 84.0412686 155.28125 98.96875 C158.23111391 101.37849799 161.20180078 103.75970581 164.1875 106.125 C169.64373289 110.47905563 174.96087513 114.99448341 180.27050781 119.52490234 C182.02988878 121.02549238 183.79223299 122.52255308 185.5546875 124.01953125 C191.9928085 129.50011144 198.33096405 135.06208331 204.5625 140.77734375 C206.64272725 142.67421764 208.74556898 144.53392943 210.875 146.375 C218.58410181 153.08271333 226.13439102 160.00899072 233.28138733 167.31382751 C235.02861284 169.02807275 236.84107379 170.61830509 238.70092773 172.20922852 C242.96529029 175.92098047 246.98217601 179.83749262 250.97265625 183.83984375 C251.69940048 184.56563126 252.42614471 185.29141876 253.1749115 186.03919983 C254.69962296 187.56323556 256.2230915 189.08851569 257.74536133 190.61499023 C260.05633891 192.93132463 262.37260771 195.24227078 264.68945312 197.55273438 C266.1800082 199.04395034 267.670253 200.53547653 269.16015625 202.02734375 C270.18388084 203.048032 270.18388084 203.048032 271.22828674 204.08934021 C275.15581729 208.03579046 278.90259704 212.08671437 282.53074646 216.31056213 C284.26520488 218.30494884 286.0989565 220.16450972 288 222 C291.19261312 225.1498003 294.17161279 228.41219489 297.09375 231.8125 C299.30945648 234.35511399 301.59098592 236.83110198 303.875 239.3125 C308.02245258 243.85524685 311.93232695 248.54119962 315.79296875 253.328125 C317.91623338 255.8985905 320.11811849 258.35919363 322.375 260.8125 C326.89653512 265.78070323 331.01152206 271.00803577 335.125 276.3125 C337.48944512 279.35986388 339.90240504 282.36398154 342.33276367 285.35888672 C375.42492638 326.25317788 402.14321034 372.07825233 426.94921875 418.3359375 C428.8608564 421.89943693 430.79628357 425.44682155 432.76953125 428.9765625 C447.3349622 455.10096349 461.40799791 481.99648762 472 510 C472.43054687 511.04929687 472.86109375 512.09859375 473.3046875 513.1796875 C474.55773942 518.26229135 473.5008143 522.47651392 470.94433594 526.94433594 C470.05418722 528.3825849 469.15001439 529.81221842 468.234375 531.234375 C467.74547791 532.01294861 467.25658081 532.79152222 466.75286865 533.59368896 C461.07439419 542.58069699 455.17409938 551.42385763 449.25 560.25 C448.09738634 561.9726115 446.94496313 563.69535044 445.79272461 565.41821289 C437.59862489 577.66017573 429.34876817 589.86289478 421 602 C420.01421206 603.43612183 419.02853195 604.87231768 418.04296875 606.30859375 C416.22993337 608.94934638 414.41479823 611.58863417 412.59765625 614.2265625 C410.85207232 616.76070725 409.11008054 619.29726126 407.37109375 621.8359375 C401.6944959 630.11828894 395.95851041 638.35705119 390.19213867 646.57714844 C386.60129755 651.70004904 383.03543314 656.83872633 379.5 662 C373.66362239 670.51708325 367.73652726 678.96988491 361.80712891 687.42236328 C360.0088917 689.98731713 358.21299744 692.55389366 356.41796875 695.12109375 C349.45933897 705.07278539 342.47775156 715.00775622 335.46777344 724.92333984 C332.97679014 728.44767516 330.48855097 731.97394701 328 735.5 C327.00001278 736.91667568 326.00001278 738.33334236 325 739.75 C324.505 740.45125 324.01 741.1525 323.5 741.875 C322 744 320.5 746.125 319 748.25 C318.50508057 748.95116943 318.01016113 749.65233887 317.50024414 750.37475586 C316.49955812 751.79232654 315.49874417 753.20980692 314.49780273 754.62719727 C312.00724549 758.15430572 309.51888408 761.68292217 307.03515625 765.21484375 C301.36399781 773.27385838 295.63776688 781.28945164 289.85571289 789.26928711 C286.20012114 794.32060069 282.58660382 799.39951229 279 804.5 C273.28226802 812.62797303 267.47175675 820.68666362 261.64111328 828.73388672 C258.92351827 832.486448 256.21205527 836.24343419 253.5 840 C252.41669638 841.50002146 251.33336304 843.00002146 250.25 844.5 C249.71375 845.2425 249.1775 845.985 248.625 846.75 C247 849 245.375 851.25 243.75 853.5 C243.21383057 854.24241943 242.67766113 854.98483887 242.12524414 855.74975586 C241.04121584 857.2506555 239.95706858 858.75146922 238.87280273 860.25219727 C236.17412345 863.98773967 233.47748688 867.72472254 230.78515625 871.46484375 C223.51407123 881.56007953 216.16476184 891.59478596 208.77050781 901.60009766 C206.99632036 904.00498771 205.22779351 906.41393836 203.4609375 908.82421875 C193.79857916 921.99700224 183.93362728 935.00232183 173.875 947.875 C173.42552002 948.4522583 172.97604004 949.0295166 172.51293945 949.62426758 C170.46670442 952.22953166 168.42308174 954.73528962 166 957 C165.01 956.67 164.02 956.34 163 956 C158.18311104 932.46285049 153.71889196 908.88059812 149.54313278 885.22169495 C149.04754718 882.4153262 148.55066151 879.60919008 148.05349731 876.80310059 C132.70069559 790.11824705 117.90500246 703.33421523 76.88089657 462.1859374 C62.64568019 378.34062496 48.40369184 294.49656668 34.05189371 210.6711154 C33.56433306 207.82320715 33.07686621 204.97528286 32.58942795 202.12735367 C26.10948097 164.26834773 19.61509458 126.41209733 13.00088429 88.57628512 C12.62872352 86.44708418 12.25676114 84.31784868 11.88487053 82.18860054 C9.64630075 69.37196426 7.40521514 56.55579774 5.14235878 43.74342251 C4.36493238 39.3363026 3.5919496 34.9284112 2.81999207 30.52033043 C2.46916263 28.52374877 2.11620779 26.52753917 1.76091003 24.53174782 C1.28326533 21.84840686 0.81278648 19.16390326 0.34399414 16.47900391 C0.20559899 15.7127107 0.06720385 14.94641748 -0.07538509 14.15690327 C-0.83971261 9.72708628 -1.21814013 5.51553015 -1 1 C-0.67 0.67 -0.34 0.34 0 0 Z " fill="#000000" transform="translate(1493,115)"/>
<path d="M0 0 C3 1 3 1 4.24169922 2.88085938 C22.30881708 40.33689821 29.49651136 84.58733159 38 125 C38.16091125 125.75798889 38.32182251 126.51597778 38.48760986 127.29693604 C45.46164901 160.17007498 48.40998938 193.47213445 50 227 C50.04052994 227.85242971 50.08105988 228.70485943 50.12281799 229.58312035 C50.86889425 245.66043274 51.16274908 261.70352225 51.16796875 277.796875 C51.17120108 280.20924904 51.17456643 282.6216229 51.17805481 285.03399658 C51.1839879 290.06270804 51.18590108 295.09140248 51.18530273 300.12011719 C51.18522202 305.1709353 51.19208644 310.22166165 51.20581055 315.27246094 C51.44887523 406.1733916 43.95538285 492.72280855 3 634 C2.76947937 634.70251892 2.53895874 635.40503784 2.30145264 636.12884521 C-3.37541475 653.39559404 -9.2471441 670.53220034 -17 687 C-17.31952637 687.68690918 -17.63905273 688.37381836 -17.96826172 689.08154297 C-23.18590171 700.12504759 -23.18590171 700.12504759 -30 703 C-33.61686577 704.00574556 -37.27643961 704.75841996 -40.953125 705.51171875 C-42.09511353 705.75205338 -43.23710205 705.992388 -44.41369629 706.24000549 C-47.65716317 706.91916194 -50.90216824 707.58975458 -54.14836121 708.25569153 C-56.28332716 708.69434749 -58.41767292 709.13591405 -60.55187988 709.57824707 C-139.68425534 725.96736899 -219.0891872 741.10551176 -421.18218613 779.69905472 C-424.6654275 780.35458204 -428.14854729 781.01075278 -431.63162953 781.66712505 C-459.31401088 786.88335613 -487.00542403 792.05012139 -514.728899 797.0438385 C-517.20050282 797.48941062 -519.67181693 797.93659305 -522.14282036 798.38548279 C-525.53707153 799.00124769 -528.93249039 799.61008108 -532.32836914 800.21679688 C-533.82579116 800.49006805 -533.82579116 800.49006805 -535.35346413 800.76885986 C-539.96159451 801.58411269 -544.29740666 802.22464628 -549 802 C-547.31456268 796.85105333 -544.26491585 792.69517356 -541.234375 788.265625 C-540.65330994 787.40795532 -540.07224487 786.55028564 -539.47357178 785.66662598 C-538.22230742 783.82075098 -536.9689163 781.97631622 -535.71362305 780.13317871 C-533.05994134 776.23679003 -530.41623594 772.33367438 -527.7722168 768.4307251 C-526.43172663 766.45199753 -525.09074145 764.47360523 -523.74926758 762.49554443 C-517.9527455 753.94455184 -512.2163466 745.35470562 -506.5 736.75 C-497.4198534 723.09467084 -488.2433936 709.50662822 -479.03115845 695.94015503 C-474.33051533 689.01675315 -469.64276478 682.08464643 -464.95535278 675.15228271 C-450.09562442 653.1766237 -435.22926356 631.20547566 -420.30664062 609.27246094 C-415.07392166 601.58120248 -409.84780566 593.88549146 -404.625 586.1875 C-404.23072815 585.60640472 -403.8364563 585.02530945 -403.43023682 584.42660522 C-399.39482652 578.47898531 -395.3600254 572.53095248 -391.32583618 566.58250427 C-381.83567263 552.58949858 -372.33262506 538.60546878 -362.80175781 524.64013672 C-359.74193405 520.15654131 -356.68326785 515.67215681 -353.625 511.1875 C-353.01108398 510.28725098 -352.39716797 509.38700195 -351.76464844 508.45947266 C-347.0041334 501.4768075 -342.2510912 494.48907975 -337.5 487.5 C-326.99366037 472.04522917 -316.470318 456.60218448 -305.91308594 441.18212891 C-301.76804227 435.1264199 -297.63274763 429.0641057 -293.5 423 C-286.67866753 412.99176617 -279.84618833 402.99124755 -273 393 C-272.54737793 392.3390332 -272.09475586 391.67806641 -271.62841797 390.99707031 C-265.8738376 382.59619197 -260.07283346 374.22871377 -254.25 365.875 C-247.01911962 355.49764926 -239.88024195 345.05984872 -232.76855469 334.60058594 C-224.99595291 323.17129905 -217.16880107 311.78504503 -209.22583008 300.47338867 C-204.78105028 294.13608817 -200.39994076 287.75761253 -196.03955078 281.36206055 C-191.68774139 274.9867189 -187.28789067 268.6456856 -182.875 262.3125 C-176.10814932 252.60071975 -169.38425432 242.8607695 -162.6953125 233.09521484 C-156.57776809 224.16550043 -150.40341929 215.27797202 -144.18774414 206.41625977 C-140.64178738 201.35689698 -137.117658 196.28378829 -133.625 191.1875 C-123.49625531 176.41144893 -113.22192836 161.73582279 -102.93823242 147.06738281 C-99.43301409 142.06236199 -95.95388342 137.04056268 -92.5 132 C-87.89117631 125.27392912 -83.22428097 118.58984107 -78.54296875 111.9140625 C-74.01349586 105.453191 -69.50297546 98.97936267 -65 92.5 C-59.44689109 84.51062838 -53.87784224 76.53272112 -48.29345703 68.56518555 C-43.80516671 62.15833871 -39.33827884 55.73678837 -34.875 49.3125 C-28.78016207 40.54262462 -22.64717467 31.80109289 -16.47509766 23.08544922 C-14.88045199 20.83098657 -13.28948383 18.57396085 -11.69921875 16.31640625 C-11.15362305 15.54216309 -10.60802734 14.76791992 -10.04589844 13.97021484 C-9.00318668 12.49034918 -7.9608459 11.01022203 -6.91894531 9.52978516 C-4.65532617 6.3192368 -2.38429724 3.12286743 0 0 Z " fill="#000000" transform="translate(1991,709)"/>
<path d="M0 0 C3.99155618 0.56597685 6.53215292 1.74765104 9.84765625 4.015625 C10.82226807 4.67457764 11.79687988 5.33353027 12.80102539 6.01245117 C13.87731201 6.75084229 14.95359863 7.4892334 16.0625 8.25 C18.49736408 9.90104182 20.93641063 11.54587339 23.375 13.19140625 C24.3734066 13.86681206 24.3734066 13.86681206 25.39198303 14.55586243 C33.78115155 20.22219382 42.25381023 25.76168834 50.71615601 31.31781006 C68.40878133 42.93963921 86.00449283 54.69355447 103.51055908 66.59410095 C111.52995156 72.04405997 119.5696806 77.46384638 127.60830688 82.88537598 C143.54901238 93.63712391 159.47608192 104.4088298 175.39125061 115.19833374 C179.90177351 118.25607732 184.41351832 121.31201234 188.92578125 124.3671875 C201.86332916 133.12737327 214.79602702 141.89448906 227.71362305 150.68408203 C234.93445031 155.59705464 242.1603767 160.50245142 249.38842773 165.40478516 C259.21563552 172.07005649 269.03599618 178.74518126 278.84448242 185.43798828 C285.72486072 190.1323901 292.61142988 194.81762839 299.5 199.5 C310.10588383 206.70965428 320.70409997 213.93047581 331.29833984 221.15722656 C334.9466072 223.64567063 338.59535816 226.13340507 342.24414062 228.62109375 C344.99224249 230.49471104 347.74026198 232.36844909 350.48828125 234.2421875 C354.19372119 236.76865374 357.89948308 239.29464684 361.60546875 241.8203125 C371.01529261 248.233712 380.42082268 254.65325106 389.81713867 261.08642578 C395.8731055 265.23161214 401.93564093 269.36710318 408 273.5 C417.23174378 279.79177484 426.45494325 286.09591648 435.67333984 292.40722656 C439.61502205 295.10560377 443.5575589 297.80273174 447.5 300.5 C449.08333732 301.5833275 450.66667066 302.66666083 452.25 303.75 C453.03375 304.28625 453.8175 304.8225 454.625 305.375 C463.33333333 311.33333333 472.04166667 317.29166667 480.75 323.25 C481.5339917 323.78641113 482.3179834 324.32282227 483.12573242 324.87548828 C484.70664032 325.95717066 486.28753229 327.03887634 487.8684082 328.12060547 C491.8637193 330.85439101 495.85931967 333.58775202 499.85546875 336.3203125 C507.89123323 341.81573853 515.92228756 347.31780039 523.94213867 352.83642578 C529.12215057 356.39965584 534.31010456 359.95118439 539.5 363.5 C547.35789708 368.8735021 555.20611101 374.26089016 563.04833984 379.65722656 C566.36491764 381.93908519 569.6825171 384.21945755 573 386.5 C574.33333808 387.41665976 575.66667142 388.33332642 577 389.25 C577.66 389.70375 578.32 390.1575 579 390.625 C586.33333333 395.66666667 593.66666667 400.70833333 601 405.75 C601.65943604 406.20334717 602.31887207 406.65669434 602.99829102 407.1237793 C604.33737791 408.04443216 605.67640747 408.96516841 607.01538086 409.88598633 C610.26023002 412.11733692 613.50591802 414.34743948 616.75390625 416.57421875 C624.62898236 421.97618932 632.47710703 427.41561291 640.3125 432.875 C647.35411918 437.78105087 654.40984027 442.66435683 661.5 447.5 C669.58928351 453.01706732 677.63067278 458.60114796 685.6640625 464.19921875 C691.0971823 467.98417067 696.53849666 471.75612984 702 475.5 C719.08143948 487.21495934 736.04739738 499.09961573 753 511 C754.10118164 511.7727124 754.10118164 511.7727124 755.22460938 512.56103516 C766.21775282 520.28052159 777.12684779 528.11250057 788 536 C787.30273438 539.79052734 787.30273438 539.79052734 784.578125 541.67578125 C710.32140166 578.19405247 610.73943749 588.1894142 472.4375 595.1875 C471.29080841 595.18689575 470.14411682 595.1862915 468.962677 595.18566895 C447.9179705 595.15585466 426.98723353 594.54810971 406 593 C404.74521851 592.90878876 404.74521851 592.90878876 403.46508789 592.81573486 C310.98662631 586.02814504 215.96978984 567.92347103 92.59375 516.88671875 C88.94469909 512.56688642 87.43612371 508.50400823 86.25585938 502.99780273 C86.10589005 502.30740213 85.95592072 501.61700153 85.80140686 500.9056797 C85.30530781 498.60453452 84.82390538 496.30061498 84.34375 493.99609375 C83.99242608 492.33863395 83.64098274 490.68119946 83.28942871 489.02378845 C79.24424678 469.81163042 75.6463528 450.51320085 72.08115387 431.20733261 C71.48664356 427.99022351 70.89024649 424.77346893 70.293396 421.55679321 C55.91660541 344.04470414 42.07934194 266.43011687 7.875 67.75 C7.65760288 66.4493523 7.65760288 66.4493523 7.4358139 65.12242889 C2.21882246 33.90729605 2.21882246 33.90729605 0.1328125 19.828125 C0.01203339 19.03799011 -0.10874573 18.24785522 -0.23318481 17.43377686 C-2.11964243 4.23928485 -2.11964243 4.23928485 0 0 Z " fill="#000000" transform="translate(560,1456)"/>
<path d="M0 0 C0.66 0 1.32 0 2 0 C6.74324629 19.11735415 11.07965297 38.28521247 15.0524025 57.57834244 C15.51540375 59.82473606 15.98005505 62.07078296 16.44515991 64.31674194 C18.7804029 75.59439472 21.10035612 86.87515758 23.41613007 98.1568222 C24.00413221 101.02012196 24.59280446 103.88328313 25.18170166 106.74639893 C43.88312672 197.67360136 62.03604091 288.7135854 103.38428688 500.03570366 C107.16529901 519.56587594 110.96733327 539.09178953 114.79296875 558.61328125 C132.00089497 646.44894567 148.96137935 734.34055969 173.625 868.3125 C173.9353097 870.01818649 173.9353097 870.01818649 174.25188828 871.7583313 C181.72572072 912.84620095 181.72572072 912.84620095 184.5234375 930.16796875 C184.68244537 931.14937332 184.84145325 932.13077789 185.00527954 933.141922 C185.58815591 936.85751722 186 940.22038394 186 944 C179.22242781 943.58947277 174.57245744 941.60327212 168.6875 938.3125 C167.90955078 937.89033203 167.13160156 937.46816406 166.33007812 937.03320312 C164.71986324 936.15742587 163.11316572 935.27515539 161.50976562 934.38696289 C158.91574187 932.95343673 156.30773061 931.54758754 153.69921875 930.140625 C147.42202143 926.71674911 141.27022512 923.09174201 135.125 919.4375 C134.24810013 918.9166835 134.24810013 918.9166835 133.35348511 918.38534546 C103.55911551 900.68138615 74.72182202 881.58799382 45.93908691 862.29925537 C44.22392494 861.15003746 42.50801456 860.00193668 40.79199219 858.85400391 C15.41183186 841.84485971 -8.40820065 822.55483384 -31 802 C-32.60367447 800.56195093 -34.20785052 799.12446103 -35.8125 797.6875 C-37.54257303 796.12600362 -39.27160907 794.56335806 -41 793 C-41.8866333 792.20021729 -42.7732666 791.40043457 -43.68676758 790.57641602 C-52.86476553 782.2334935 -61.64656961 773.50648086 -70.40429688 764.72607422 C-72.88818449 762.23678685 -75.37742683 759.75294298 -77.8671875 757.26953125 C-79.47167518 755.66438331 -81.07585292 754.0589255 -82.6796875 752.453125 C-83.41210663 751.7227301 -84.14452576 750.99233521 -84.8991394 750.23980713 C-88.92065931 746.20013334 -92.76556445 742.064074 -96.48831177 737.74749756 C-98.25296449 735.70757539 -100.07874184 733.73558982 -101.9375 731.78125 C-102.60523438 731.07613281 -103.27296875 730.37101562 -103.9609375 729.64453125 C-104.63382813 728.93683594 -105.30671875 728.22914063 -106 727.5 C-111.12949517 722.10518611 -116.14257924 716.64153271 -121 711 C-121.48774902 710.43442383 -121.97549805 709.86884766 -122.47802734 709.28613281 C-123.88406102 707.65152729 -125.28652382 706.01394161 -126.6875 704.375 C-129.80023641 700.7337043 -132.91435455 697.09411282 -136.0546875 693.4765625 C-141.51958644 687.16811826 -146.81523726 680.77263451 -151.92822266 674.17529297 C-154.99608817 670.23120896 -158.17628788 666.41003375 -161.4375 662.625 C-167.06375664 656.06153296 -172.21143755 649.17976548 -177.34619141 642.22900391 C-179.0987376 639.86692142 -180.86579274 637.51629966 -182.63671875 635.16796875 C-194.79972119 619.03815463 -206.69008686 602.74105876 -218 586 C-218.54269531 585.19691406 -219.08539063 584.39382813 -219.64453125 583.56640625 C-232.76824516 564.10302015 -245.25325524 544.32605761 -257 524 C-257.56477051 523.02289062 -258.12954102 522.04578125 -258.71142578 521.0390625 C-270.76837469 500.07637402 -281.57090645 478.52418259 -291.8125 456.625 C-292.32248535 455.54355713 -292.8324707 454.46211426 -293.35791016 453.34790039 C-293.82374512 452.33848389 -294.28958008 451.32906738 -294.76953125 450.2890625 C-295.17792236 449.40943848 -295.58631348 448.52981445 -296.00708008 447.62353516 C-297.12803773 444.66169328 -297.80450757 442.16854137 -298 439 C-296.89868164 436.58837891 -296.89868164 436.58837891 -295.16015625 434.2265625 C-294.51691406 433.33098633 -293.87367188 432.43541016 -293.2109375 431.51269531 C-292.14746094 430.08328613 -292.14746094 430.08328613 -291.0625 428.625 C-289.58221077 426.57205863 -288.10442338 424.51731141 -286.62890625 422.4609375 C-285.86336426 421.40100586 -285.09782227 420.34107422 -284.30908203 419.24902344 C-279.90543518 413.05281575 -275.75917131 406.68463065 -271.58227539 400.33447266 C-267.84902631 394.68740153 -263.97845235 389.1764338 -259.97314453 383.71923828 C-256.77910411 379.31745379 -253.73536176 374.81616588 -250.6875 370.3125 C-249.37394153 368.37874075 -248.06013783 366.44514805 -246.74609375 364.51171875 C-246.10913574 363.57376465 -245.47217773 362.63581055 -244.81591797 361.66943359 C-242.30591856 357.97968722 -239.78068958 354.30057437 -237.25 350.625 C-236.86554214 350.06642807 -236.48108429 349.50785614 -236.0849762 348.93235779 C-233.92286694 345.79141454 -231.75961241 342.65127872 -229.59301758 339.51342773 C-222.43566028 329.13747646 -215.37245786 318.69911082 -208.3293457 308.24536133 C-206.43721908 305.43708305 -204.54389155 302.6296174 -202.65039062 299.82226562 C-195.73664804 289.56818881 -188.84836953 279.29784132 -182 269 C-180.62524499 266.93733669 -179.25028368 264.87481085 -177.875 262.8125 C-177.23304688 261.84957031 -176.59109375 260.88664062 -175.9296875 259.89453125 C-170 251 -170 251 -168.11010742 248.1652832 C-166.78313213 246.1747435 -165.45628971 244.1841152 -164.12963867 242.19335938 C-160.85689854 237.28277667 -157.58205751 232.37363354 -154.30078125 227.46875 C-143.95205352 211.98754548 -133.69383485 196.4476678 -123.45376587 180.89440918 C-115.90441172 169.42857973 -108.33819742 157.97554954 -100.70410156 146.56591797 C-94.25151014 136.90796947 -87.88970285 127.19048184 -81.52929688 117.47167969 C-71.66889734 102.4094832 -61.6367239 87.46518913 -51.56958008 72.54052734 C-49.69992124 69.76841676 -47.8313731 66.99555983 -45.96289062 64.22265625 C-39.99256727 55.36689681 -34.00632958 46.52245011 -27.9765625 37.70703125 C-27.46610886 36.9606842 -26.95565521 36.21433716 -26.42973328 35.44537354 C-6.8124108 6.8124108 -6.8124108 6.8124108 0 0 Z " fill="#000000" transform="translate(394,1000)"/>
</svg>
